<?xml version="1.0" standalone="no"?>
<!DOCTYPE svg PUBLIC "-//W3C//DTD SVG 20010904//EN"
 "http://www.w3.org/TR/2001/REC-SVG-20010904/DTD/svg10.dtd">
<svg version="1.0" xmlns="http://www.w3.org/2000/svg"
 width="1024.000000pt" height="1024.000000pt" viewBox="0 0 1024.000000 1024.000000"
 preserveAspectRatio="xMidYMid meet">
<metadata>
Created by potrace 1.11, written by Peter Selinger 2001-2013
</metadata>
<g transform="translate(0.000000,1024.000000) scale(0.100000,-0.100000)"
fill="#000000" stroke="none">
<path d="M4850 9900 c0 -5 5 -10 10 -10 6 0 10 5 10 10 0 6 -4 10 -10 10 -5 0
-10 -4 -10 -10z"/>
<path d="M5270 9895 c0 -9 5 -15 11 -13 6 2 11 8 11 13 0 5 -5 11 -11 13 -6 2
-11 -4 -11 -13z"/>
<path d="M5690 9895 c0 -9 5 -15 11 -13 6 2 11 8 11 13 0 5 -5 11 -11 13 -6 2
-11 -4 -11 -13z"/>
<path d="M6110 9895 c0 -9 5 -15 11 -13 6 2 11 8 11 13 0 5 -5 11 -11 13 -6 2
-11 -4 -11 -13z"/>
<path d="M6530 9900 c0 -5 5 -10 10 -10 6 0 10 5 10 10 0 6 -4 10 -10 10 -5 0
-10 -4 -10 -10z"/>
<path d="M5058 9709 c-22 -12 -12 -49 13 -49 25 0 36 28 18 45 -10 10 -19 11
-31 4z"/>
<path d="M5473 9713 c-19 -7 -16 -41 5 -52 22 -12 42 3 42 30 0 13 -23 33 -33
28 -1 0 -8 -3 -14 -6z"/>
<path d="M5892 9708 c-17 -17 -15 -36 6 -47 13 -7 23 -6 30 1 17 17 15 45 -4
52 -20 8 -18 8 -32 -6z"/>
<path d="M6317 9707 c-22 -16 -13 -47 14 -47 25 0 36 28 17 46 -11 12 -17 12
-31 1z"/>
<path d="M4217 9704 c-14 -15 -6 -34 14 -34 14 0 19 5 17 17 -3 18 -20 27 -31
17z"/>
<path d="M4632 9688 c4 -27 33 -36 42 -13 8 22 -1 35 -25 35 -15 0 -20 -6 -17
-22z"/>
<path d="M6730 9691 c0 -26 17 -36 35 -21 18 15 8 40 -16 40 -12 0 -19 -7 -19
-19z"/>
<path d="M3800 9690 c0 -5 5 -10 10 -10 6 0 10 5 10 10 0 6 -4 10 -10 10 -5 0
-10 -4 -10 -10z"/>
<path d="M7160 9685 c0 -9 5 -15 11 -13 6 2 11 8 11 13 0 5 -5 11 -11 13 -6 2
-11 -4 -11 -13z"/>
<path d="M7580 9690 c0 -5 5 -10 11 -10 5 0 7 5 4 10 -3 6 -8 10 -11 10 -2 0
-4 -4 -4 -10z"/>
<path d="M6002 9536 c-11 -11 -33 -66 -50 -121 -24 -83 -33 -101 -51 -103 -33
-5 -42 -33 -24 -70 15 -31 14 -39 -37 -215 -29 -100 -55 -185 -59 -189 -3 -4
-29 -9 -57 -11 -28 -2 -55 -6 -60 -9 -5 -3 -17 -4 -26 -3 -9 2 -33 -1 -53 -5
-35 -8 -36 -8 -31 21 6 39 -26 79 -63 79 -41 0 -65 -31 -58 -75 3 -19 3 -36
-1 -39 -4 -2 -39 -7 -78 -10 -39 -4 -81 -8 -92 -11 -12 -2 -56 -7 -99 -10 -43
-4 -82 -9 -87 -12 -8 -5 -26 14 -26 30 0 4 11 7 24 7 31 0 56 25 56 55 0 23
-22 54 -41 56 -5 1 -15 2 -21 3 -7 1 -18 -2 -25 -6 -8 -6 -15 11 -23 61 -7 38
-17 75 -21 82 -10 17 -61 20 -71 5 -5 -6 -8 -3 -8 10 0 52 -63 78 -99 40 -22
-23 -22 -56 0 -82 14 -17 60 -18 78 -1 11 10 12 8 3 -8 -5 -11 -12 -47 -15
-80 -13 -139 -20 -186 -29 -191 -10 -6 -28 -9 -128 -19 -36 -4 -76 -8 -90 -10
-93 -13 -160 -16 -176 -7 -14 7 -29 6 -54 -5 -42 -19 -47 -20 -130 -29 -104
-10 -123 -12 -162 -17 -28 -4 -38 -1 -38 9 0 7 -11 21 -24 29 -34 22 -76 10
-90 -26 -6 -16 -15 -29 -21 -30 -5 0 -19 -2 -30 -5 -11 -2 -43 -6 -72 -8 -62
-6 -161 -17 -185 -21 -14 -3 -15 0 -7 22 23 61 -66 106 -93 47 -9 -18 -9 -33
-1 -53 l10 -28 -89 -9 c-60 -6 -92 -6 -97 1 -5 5 -50 87 -101 180 -51 94 -104
189 -117 213 -12 23 -35 63 -49 90 -73 133 -96 172 -105 177 -43 27 -89 -10
-96 -78 -7 -57 -6 -58 175 -383 35 -62 60 -118 57 -126 -4 -9 8 -31 29 -53 20
-21 36 -42 36 -46 0 -5 -17 -9 -37 -10 -21 0 -47 -2 -58 -5 -11 -2 -42 -6 -70
-8 -27 -2 -50 -5 -50 -6 0 0 -18 -3 -40 -5 -22 -1 -62 -6 -90 -9 -27 -3 -72
-8 -100 -11 -27 -3 -63 -7 -80 -10 -16 -2 -64 -7 -105 -10 -41 -3 -82 -8 -90
-10 -8 -2 -44 -7 -80 -10 -36 -4 -76 -8 -90 -10 -123 -15 -159 -16 -178 -6
-15 8 -21 7 -25 -3 -4 -9 -28 -17 -64 -21 -32 -3 -72 -8 -89 -10 -17 -3 -57
-7 -90 -10 -66 -7 -122 -13 -174 -20 -50 -7 -114 -14 -275 -29 -33 -3 -76 -8
-96 -11 -39 -6 -115 -15 -164 -19 -103 -10 -165 -19 -165 -25 0 -3 5 -35 10
-71 6 -36 13 -85 15 -110 6 -47 12 -85 15 -85 1 0 3 -13 5 -30 3 -28 8 -68 20
-155 3 -20 8 -47 10 -60 9 -48 18 -115 17 -132 0 -10 2 -18 6 -18 4 0 8 -17 8
-38 1 -38 5 -64 29 -212 3 -19 8 -51 10 -70 2 -19 7 -51 10 -70 2 -19 7 -51
10 -70 3 -19 7 -51 10 -70 3 -19 8 -53 11 -75 2 -21 7 -51 10 -65 3 -14 7 -41
10 -60 3 -19 7 -46 10 -60 4 -14 8 -41 10 -60 2 -19 6 -51 9 -70 3 -19 7 -48
9 -65 1 -16 6 -50 10 -75 8 -45 10 -60 21 -135 3 -23 7 -51 10 -63 2 -12 0
-22 -6 -22 -14 0 -11 -31 5 -49 7 -9 21 -70 31 -136 10 -66 19 -129 21 -140 2
-11 7 -40 10 -65 3 -25 8 -56 10 -70 3 -14 7 -41 10 -60 5 -40 12 -92 19 -135
7 -48 16 -107 20 -140 4 -29 18 -122 30 -195 3 -19 7 -51 10 -70 2 -19 6 -51
10 -70 3 -19 8 -53 11 -75 6 -48 12 -89 19 -130 3 -16 7 -47 9 -67 2 -20 7
-42 11 -48 4 -6 -1 -17 -11 -24 -19 -15 -12 -51 9 -43 7 3 13 -3 13 -12 1 -17
11 -89 19 -131 3 -14 7 -44 10 -67 l5 -43 -67 -33 c-38 -19 -122 -56 -188 -82
-137 -55 -157 -67 -179 -113 -22 -45 -20 -78 6 -102 21 -19 30 -20 97 -14 50
4 72 3 67 -4 -3 -6 -2 -13 4 -17 5 -3 10 0 10 8 0 8 8 16 18 19 36 8 282 10
283 2 0 -5 2 -16 3 -24 2 -8 6 -37 10 -65 3 -27 8 -59 10 -70 6 -32 18 -117
22 -150 2 -16 6 -43 9 -60 4 -26 15 -99 30 -200 5 -35 16 -103 20 -126 3 -14
6 -37 21 -149 4 -30 11 -74 19 -119 3 -19 8 -55 10 -80 2 -25 5 -46 5 -46 3 0
19 -100 25 -160 3 -22 6 -49 9 -60 2 -11 7 -40 10 -65 4 -25 11 -72 16 -105
10 -62 17 -116 25 -174 2 -19 7 -49 9 -67 l6 -33 -230 -161 c-213 -150 -278
-204 -281 -233 -1 -7 -3 -25 -5 -42 -4 -33 19 -65 48 -65 10 0 123 74 251 164
127 90 235 161 239 157 4 -4 10 -22 12 -41 3 -19 8 -53 11 -75 3 -22 8 -53 10
-70 3 -16 6 -39 9 -50 3 -16 -87 -90 -480 -393 -267 -206 -492 -384 -500 -397
-9 -13 -16 -45 -17 -72 -2 -43 1 -49 26 -61 30 -15 42 -8 187 109 150 120 803
619 807 616 6 -7 15 -52 27 -147 7 -51 18 -126 22 -150 3 -14 7 -43 10 -65 2
-22 9 -65 14 -95 5 -30 11 -72 12 -92 l2 -38 68 0 c67 0 68 0 69 -27 1 -16 3
-38 5 -50 2 -13 5 -33 7 -45 1 -15 9 -22 20 -22 9 1 68 5 130 8 61 4 139 9
172 11 100 8 316 22 475 30 36 2 99 6 140 9 74 6 139 10 330 21 52 4 127 8
165 11 151 10 339 22 461 29 45 3 114 7 155 10 90 6 184 13 304 20 50 3 119 8
154 11 35 2 112 7 170 9 58 3 106 5 106 6 0 2 61 7 175 13 63 4 140 9 170 11
30 3 100 7 155 10 55 2 100 5 100 5 0 1 27 3 60 5 33 2 98 6 145 9 47 3 128 8
180 12 52 3 118 7 145 9 28 2 107 7 176 10 l125 7 13 -44 c19 -65 36 -87 67
-85 32 3 64 55 64 104 0 18 3 33 8 34 28 4 70 7 162 13 58 3 132 8 165 11 33
2 107 7 165 10 58 3 128 8 155 10 28 2 93 7 145 10 52 3 124 7 160 10 101 7
422 28 625 40 197 11 266 15 315 19 30 3 105 8 165 11 61 4 130 8 155 10 25 2
99 6 165 10 66 4 124 9 128 12 5 3 8 19 7 37 -1 17 -1 33 0 36 2 5 5 111 14
509 3 128 8 236 11 239 2 3 0 11 -6 18 -6 8 -6 14 0 18 5 4 8 18 5 32 -6 31
-12 35 138 -78 70 -53 126 -88 140 -88 58 0 98 117 58 166 -8 8 -84 69 -171
135 l-158 119 4 203 c3 111 7 294 10 407 3 113 7 268 8 345 2 77 6 146 10 152
4 6 3 14 -2 18 -6 3 -7 13 -4 22 9 23 8 66 -1 81 -4 7 -4 12 1 12 4 0 8 27 7
60 -1 58 0 60 25 60 14 0 31 4 37 8 23 16 44 59 44 92 1 29 2 32 11 18 17 -30
67 -17 64 17 -2 36 -47 48 -64 17 -9 -16 -11 -15 -26 5 -8 12 -30 31 -49 43
l-35 21 2 134 c1 74 4 135 7 135 3 0 6 120 8 268 1 147 5 312 7 367 3 55 5
106 5 113 0 6 -1 20 -1 30 0 9 1 45 3 80 2 34 0 62 -5 62 -4 0 -5 5 -2 10 8
13 14 159 17 427 2 106 6 193 10 193 4 0 3 13 -2 29 -4 16 -6 32 -3 35 3 2 7
94 9 203 7 313 10 354 25 364 10 6 15 2 17 -14 8 -49 50 -63 76 -25 14 19 14
25 2 44 -14 21 -12 22 102 60 131 44 167 70 178 129 7 41 0 61 -32 81 -16 10
-44 4 -182 -42 -154 -51 -192 -58 -176 -32 7 11 14 263 17 580 1 87 6 158 11
158 5 0 3 6 -3 13 -6 8 -8 17 -4 21 4 4 8 68 9 144 2 75 5 241 9 367 13 510
16 827 8 822 -4 -3 -36 -8 -70 -11 l-63 -6 0 81 c0 72 -2 80 -17 75 -10 -2
-47 -7 -83 -11 -36 -4 -78 -8 -95 -10 -16 -2 -57 -7 -90 -10 -33 -4 -71 -8
-85 -10 -14 -2 -52 -6 -85 -10 -62 -6 -116 -12 -195 -21 -25 -3 -61 -7 -80 -9
-19 -2 -58 -6 -85 -9 -28 -4 -71 -8 -95 -11 -25 -2 -65 -7 -90 -10 -25 -3 -61
-7 -80 -9 -126 -14 -157 -18 -177 -21 -13 -2 -23 1 -23 6 0 20 -30 20 -57 0
-18 -13 -52 -22 -98 -26 -38 -4 -114 -12 -167 -19 -97 -12 -109 -11 -86 12 9
9 9 18 0 37 -14 30 -51 34 -75 7 -14 -16 -15 -21 -2 -45 13 -25 12 -27 -8 -28
-12 -1 -31 -3 -42 -4 -49 -8 -123 -17 -162 -21 -24 -2 -62 -6 -85 -8 -24 -2
-65 -7 -93 -11 -27 -3 -66 -8 -86 -10 -73 -7 -165 -16 -189 -20 -14 -2 -54 -7
-90 -10 -36 -4 -68 -9 -71 -11 -3 -2 -52 -6 -109 -9 -56 -3 -106 -7 -110 -10
-4 -2 -34 -7 -66 -10 -33 -3 -66 -7 -74 -10 -8 -2 -49 -7 -90 -10 -41 -4 -77
-8 -80 -8 -3 -1 -19 13 -36 31 l-32 31 79 273 c76 262 91 338 68 338 -5 0 -7
5 -4 10 3 6 3 10 -2 11 -4 0 -16 2 -25 4 -9 2 -25 -7 -36 -19z"/>
<path d="M4847 9497 c-22 -16 -13 -47 14 -47 25 0 36 28 17 46 -11 12 -17 12
-31 1z"/>
<path d="M5260 9495 c-18 -21 -5 -47 22 -43 26 3 37 36 16 49 -18 12 -24 11
-38 -6z"/>
<path d="M5682 9498 c-17 -17 -15 -36 7 -47 14 -8 22 -7 31 4 26 31 -9 72 -38
43z"/>
<path d="M6100 9495 c-18 -21 -5 -47 22 -43 26 3 37 36 16 49 -18 12 -24 11
-38 -6z"/>
<path d="M6521 9496 c-17 -20 -2 -48 23 -44 27 4 32 34 8 47 -15 8 -23 7 -31
-3z"/>
<path d="M4427 9494 c-14 -15 -6 -34 14 -34 14 0 19 5 17 17 -3 18 -20 27 -31
17z"/>
<path d="M6945 9491 c-8 -15 3 -31 21 -31 9 0 14 7 12 17 -4 20 -24 28 -33 14z"/>
<path d="M3595 9480 c-3 -5 -1 -10 4 -10 6 0 11 5 11 10 0 6 -2 10 -4 10 -3 0
-8 -4 -11 -10z"/>
<path d="M4005 9481 c-3 -5 -1 -12 5 -16 12 -7 30 2 30 16 0 12 -27 12 -35 0z"/>
<path d="M7370 9474 c0 -9 5 -14 12 -12 18 6 21 28 4 28 -9 0 -16 -7 -16 -16z"/>
<path d="M5477 9312 c-10 -2 -23 -15 -28 -29 -20 -53 59 -90 83 -39 18 41 -12
78 -55 68z"/>
<path d="M4625 9297 c-39 -29 6 -89 49 -65 29 16 14 78 -19 78 -6 0 -19 -6
-30 -13z"/>
<path d="M5042 9298 c-19 -19 -14 -56 9 -68 30 -17 73 13 63 43 -11 36 -48 49
-72 25z"/>
<path d="M6302 9298 c-22 -22 -14 -58 15 -69 24 -9 30 -7 45 11 34 42 -22 96
-60 58z"/>
<path d="M6726 9294 c-21 -20 -20 -37 2 -56 24 -22 62 -7 62 25 0 43 -35 60
-64 31z"/>
<path d="M4197 9281 c-6 -25 10 -51 32 -51 26 0 44 25 36 50 -9 27 -60 28 -68
1z"/>
<path d="M7144 9277 c-9 -27 23 -52 43 -35 8 6 13 21 11 32 -4 29 -45 31 -54
3z"/>
<path d="M3377 9275 c-7 -15 1 -25 20 -25 7 0 13 6 13 14 0 19 -27 28 -33 11z"/>
<path d="M3787 9276 c-3 -8 0 -19 7 -25 18 -15 49 -2 42 16 -3 8 -6 17 -6 19
0 11 -39 2 -43 -10z"/>
<path d="M7570 9271 c0 -27 19 -36 37 -18 18 18 9 37 -18 37 -12 0 -19 -7 -19
-19z"/>
<path d="M7996 9275 c-6 -17 9 -29 24 -20 14 9 12 22 -4 28 -8 3 -17 -1 -20
-8z"/>
<path d="M5240 9100 c-48 -48 1 -124 64 -101 47 18 54 77 13 106 -29 20 -53
19 -77 -5z"/>
<path d="M5657 9102 c-27 -29 -22 -76 10 -97 34 -23 73 -11 92 29 12 25 11 31
-6 55 -25 33 -72 40 -96 13z"/>
<path d="M6080 9100 c-24 -24 -26 -63 -4 -84 16 -17 26 -20 59 -16 46 4 62 77
23 104 -30 21 -54 20 -78 -4z"/>
<path d="M6506 9099 c-43 -33 -20 -99 34 -99 45 0 75 51 52 87 -4 6 -19 16
-34 22 -22 8 -31 6 -52 -10z"/>
<path d="M4406 9091 c-24 -27 -17 -62 17 -81 27 -14 29 -14 52 13 25 29 24 52
-3 75 -22 17 -46 15 -66 -7z"/>
<path d="M6932 9094 c-41 -29 -23 -84 28 -84 49 0 68 51 32 83 -23 21 -32 21
-60 1z"/>
<path d="M3576 9084 c-21 -20 -20 -37 2 -56 24 -22 62 -7 62 25 0 43 -35 60
-64 31z"/>
<path d="M3981 9078 c-15 -41 14 -74 54 -64 29 7 43 49 25 71 -20 24 -69 19
-79 -7z"/>
<path d="M3162 9058 c4 -27 33 -36 42 -13 8 22 -1 35 -25 35 -15 0 -20 -6 -17
-22z"/>
<path d="M2750 9055 c0 -9 5 -15 11 -13 6 2 11 8 11 13 0 5 -5 11 -11 13 -6 2
-11 -4 -11 -13z"/>
<path d="M4197 8882 c-24 -26 -21 -59 7 -77 55 -36 111 42 58 83 -22 17 -46
15 -65 -6z"/>
<path d="M4605 8876 c-39 -59 49 -122 89 -64 9 12 16 30 16 40 0 48 -78 66
-105 24z"/>
<path d="M3786 8874 c-22 -21 -20 -40 6 -58 15 -11 26 -12 40 -5 24 13 23 55
-1 69 -25 13 -27 13 -45 -6z"/>
<path d="M3373 8873 c-16 -6 -17 -35 -1 -51 16 -16 23 -15 42 4 12 12 13 20 6
35 -11 19 -23 22 -47 12z"/>
<path d="M2960 8844 c0 -9 5 -14 12 -12 18 6 21 28 4 28 -9 0 -16 -7 -16 -16z"/>
<path d="M2745 8657 c-23 -17 -14 -47 15 -47 26 0 37 27 18 46 -12 12 -17 12
-33 1z"/>
<path d="M9470 8215 c0 -9 5 -15 11 -13 6 2 11 8 11 13 0 5 -5 11 -11 13 -6 2
-11 -4 -11 -13z"/>
<path d="M9260 8005 c0 -9 5 -15 11 -13 6 2 11 8 11 13 0 5 -5 11 -11 13 -6 2
-11 -4 -11 -13z"/>
<path d="M9463 7804 c-7 -18 11 -39 26 -30 17 11 13 46 -4 46 -9 0 -18 -7 -22
-16z"/>
<path d="M9253 7613 c-16 -6 -17 -35 -2 -50 17 -17 49 -3 49 22 0 18 -22 40
-33 34 -1 0 -8 -3 -14 -6z"/>
<path d="M9672 7588 c7 -19 38 -22 38 -4 0 10 -9 16 -21 16 -12 0 -19 -5 -17
-12z"/>
<path d="M9462 7398 c-16 -16 -15 -33 3 -48 12 -10 18 -10 30 0 20 16 19 46
-1 54 -20 8 -18 8 -32 -6z"/>
<path d="M9245 7193 c-18 -18 -19 -35 -3 -51 28 -28 75 -1 63 36 -8 26 -41 34
-60 15z"/>
<path d="M9670 7170 c0 -24 29 -38 40 -20 12 19 1 40 -21 40 -12 0 -19 -7 -19
-20z"/>
<path d="M10105 7170 c-3 -5 -1 -10 4 -10 6 0 11 5 11 10 0 6 -2 10 -4 10 -3
0 -8 -4 -11 -10z"/>
<path d="M9890 6955 c0 -9 5 -15 11 -13 6 2 11 8 11 13 0 5 -5 11 -11 13 -6 2
-11 -4 -11 -13z"/>
<path d="M9677 6769 c-20 -11 -22 -30 -5 -47 14 -14 48 2 48 22 0 22 -23 36
-43 25z"/>
<path d="M10095 6751 c-7 -12 12 -24 25 -16 11 7 4 25 -10 25 -5 0 -11 -4 -15
-9z"/>
<path d="M9463 6580 c-47 -19 -36 -90 15 -90 51 0 71 50 34 83 -21 19 -19 19
-49 7z"/>
<path d="M9891 6550 c-16 -9 -6 -30 15 -30 15 0 20 25 6 34 -4 2 -14 1 -21 -4z"/>
<path d="M1075 6540 c-3 -5 -1 -10 4 -10 6 0 11 5 11 10 0 6 -2 10 -4 10 -3 0
-8 -4 -11 -10z"/>
<path d="M9242 6364 c-48 -34 -4 -107 48 -81 25 13 37 52 23 73 -14 21 -48 24
-71 8z"/>
<path d="M9661 6341 c-13 -24 8 -55 34 -50 28 6 42 34 26 53 -18 22 -48 20
-60 -3z"/>
<path d="M10093 6334 c-8 -21 13 -42 28 -27 13 13 5 43 -11 43 -6 0 -13 -7
-17 -16z"/>
<path d="M9446 6154 c-38 -37 -3 -101 49 -88 43 11 53 62 17 92 -21 16 -47 15
-66 -4z"/>
<path d="M9884 6125 c-7 -18 3 -35 21 -35 18 0 26 25 12 39 -15 15 -27 14 -33
-4z"/>
<path d="M1072 6121 c4 -13 18 -16 19 -4 0 4 -5 9 -11 12 -7 2 -11 -2 -8 -8z"/>
<path d="M9236 5944 c-32 -31 -10 -94 33 -94 29 0 60 36 54 62 -11 45 -57 62
-87 32z"/>
<path d="M9663 5928 c-13 -14 -15 -23 -7 -36 15 -24 60 -28 68 -6 17 45 -29
77 -61 42z"/>
<path d="M1277 5925 c-20 -19 -12 -45 14 -45 26 0 36 28 17 46 -13 14 -17 14
-31 -1z"/>
<path d="M10092 5918 c-8 -8 -9 -15 -1 -25 22 -26 53 -8 41 25 -5 15 -24 16
-40 0z"/>
<path d="M9446 5734 c-31 -30 -7 -95 35 -94 26 1 52 29 52 56 0 47 -55 71 -87
38z"/>
<path d="M9880 5700 c0 -24 29 -38 40 -20 12 19 1 40 -21 40 -12 0 -19 -7 -19
-20z"/>
<path d="M1070 5695 c0 -9 5 -15 11 -13 6 2 11 8 11 13 0 5 -5 11 -11 13 -6 2
-11 -4 -11 -13z"/>
<path d="M9236 5524 c-36 -36 -2 -103 47 -90 31 7 49 45 34 72 -20 37 -55 45
-81 18z"/>
<path d="M9668 5510 c-19 -15 -21 -22 -12 -37 15 -24 59 -29 68 -7 8 22 -1 51
-19 58 -8 3 -24 -3 -37 -14z"/>
<path d="M1267 5496 c-7 -19 18 -40 39 -32 8 3 14 14 12 23 -4 22 -43 29 -51
9z"/>
<path d="M10093 5494 c-9 -23 13 -40 32 -24 12 10 13 16 4 26 -15 18 -28 18
-36 -2z"/>
<path d="M9447 5312 c-24 -27 -21 -59 8 -78 29 -19 58 -12 72 19 25 54 -42
102 -80 59z"/>
<path d="M9883 5284 c-8 -21 13 -42 28 -27 13 13 5 43 -11 43 -6 0 -13 -7 -17
-16z"/>
<path d="M1076 5281 c-4 -5 -2 -12 3 -15 5 -4 12 -2 15 3 4 5 2 12 -3 15 -5 4
-12 2 -15 -3z"/>
<path d="M9240 5103 c-48 -34 6 -111 55 -79 11 7 21 23 23 35 7 43 -41 70 -78
44z"/>
<path d="M9661 5081 c-13 -24 8 -55 34 -50 28 6 42 34 26 53 -18 22 -48 20
-60 -3z"/>
<path d="M1272 5068 c4 -27 33 -36 42 -13 8 22 -1 35 -25 35 -15 0 -20 -6 -17
-22z"/>
<path d="M10101 5080 c-19 -11 -6 -41 14 -34 16 6 20 29 7 38 -4 2 -14 1 -21
-4z"/>
<path d="M1040 4925 c-118 -13 -246 -27 -285 -30 -38 -4 -81 -8 -95 -10 -14
-2 -52 -6 -85 -9 -101 -10 -347 -36 -395 -42 -69 -8 -90 -34 -90 -110 0 -72
10 -80 83 -70 23 3 67 8 97 11 48 4 374 38 485 50 22 2 110 11 195 20 343 34
337 33 366 63 25 28 26 29 29 77 3 38 -29 75 -64 74 -14 -1 -123 -12 -241 -24z"/>
<path d="M9454 4892 c-36 -23 -17 -82 26 -82 20 0 50 25 50 41 0 38 -45 62
-76 41z"/>
<path d="M9887 4864 c-9 -10 2 -24 19 -24 8 0 14 7 14 15 0 15 -21 21 -33 9z"/>
<path d="M9247 4678 c-26 -14 -21 -56 8 -70 30 -14 55 3 55 38 0 34 -32 50
-63 32z"/>
<path d="M9664 4655 c-4 -9 -2 -21 4 -27 16 -16 47 -5 47 17 0 26 -42 34 -51
10z"/>
<path d="M1277 4654 c-9 -10 2 -24 19 -24 8 0 14 7 14 15 0 15 -21 21 -33 9z"/>
<path d="M10100 4645 c0 -9 5 -15 11 -13 6 2 11 8 11 13 0 5 -5 11 -11 13 -6
2 -11 -4 -11 -13z"/>
<path d="M9463 4470 c-27 -11 -30 -42 -7 -64 28 -29 64 -12 64 29 0 20 -17 46
-29 44 -4 0 -16 -4 -28 -9z"/>
<path d="M9890 4435 c0 -9 5 -15 11 -13 6 2 11 8 11 13 0 5 -5 11 -11 13 -6 2
-11 -4 -11 -13z"/>
<path d="M9673 4234 c-8 -21 13 -42 28 -27 13 13 5 43 -11 43 -6 0 -13 -7 -17
-16z"/>
<path d="M9461 4031 c-21 -14 -5 -43 21 -39 15 2 23 10 23 23 0 22 -22 30 -44
16z"/>
<path d="M9246 3821 c-11 -18 6 -42 28 -39 29 4 29 42 -1 46 -11 2 -24 -1 -27
-7z"/>
<path d="M9675 3811 c-7 -12 12 -24 25 -16 11 7 4 25 -10 25 -5 0 -11 -4 -15
-9z"/>
<path d="M9460 3595 c0 -8 9 -15 20 -15 11 0 20 7 20 15 0 8 -9 15 -20 15 -11
0 -20 -7 -20 -15z"/>
<path d="M9265 3380 c3 -5 8 -10 11 -10 2 0 4 5 4 10 0 6 -5 10 -11 10 -5 0
-7 -4 -4 -10z"/>
</g>
</svg>
